#!OML:ASF I:\Actors\actors\Patient Classification 1\Patient 1\Session 1\Subject1.ASF
:FULLY-SPECIFIED
:DEGREES
666
root 0.87005 17.6133 8.26005 5.05632 -1.9151 -10.2985
lowerback -2.52352 -1.94738 3.33622
upperback -2.99268 -2.61953 1.90873
thorax -1.72045 -1.35516 0.0685296
lowerneck 0.0561239 -11.3126 -10.3143
upperneck 25.8818 -18.5257 12.4451
head 10.4158 -8.69287 4.21096
rclavicle 1.76421e-014 7.95139e-016
rhumerus -8.97898 77.1936 -104.911
rradius 125.121
rwrist 17.4661
rhand -24.3705 -57.3336
rfingers 7.12502
rthumb 2.1195 -87.3028
lclavicle 1.76421e-014 7.95139e-016
lhumerus -175.576 -113.653 271.689
lradius 94.4275
lwrist 48.58
lhand 27.2088 -9.49261
lfingers 7.12502
lthumb 51.181 11.0872
rfemur -7.48207 18.1778 27.6647
rtibia 13.9618
rfoot -14.923 -16.0159
rtoes -1.94792
lfemur 2.79331 -29.8937 -7.69094
ltibia -0.210433
lfoot -12.9579 38.9262
ltoes -1.45808
667
root 0.876821 17.6111 8.25391 4.98823 -2.02501 -10.5482
lowerback -2.3275 -2.23024 3.63824
upperback -2.92335 -2.9915 2.04937
thorax -1.77681 -1.54554 0.049646
lowerneck 1.42292 -11.319 -10.4386
upperneck 24.974 -18.3976 12.1495
head 9.78749 -8.76554 4.23189
rclavicle -2.64881e-014 2.06736e-014
rhumerus -1.13044 78.5012 -97.1562
rradius 124.397
rwrist 19.2247
rhand -24.6197 -57.6316
rfingers 7.12502
rthumb 1.87888 -87.6031
lclavicle -2.64881e-014 2.06736e-014
lhumerus -176.4 -117.508 272.788
lradius 94.1903
lwrist 48.0062
lhand 23.5508 -9.33256
lfingers 7.12502
lthumb 47.8274 12.9604
rfemur -7.40856 18.1754 27.9642
rtibia 13.9723
rfoot -14.8739 -15.9054
rtoes -1.96921
lfemur 2.81212 -29.544 -7.41982
ltibia -0.103997
lfoot -13.0254 38.687
ltoes -1.52291
668
root 0.882097 17.6078 8.22904 4.84611 -2.45315 -10.3243
lowerback -1.71054 -2.46613 2.83424
upperback -2.892 -3.26759 2.49664
thorax -2.0246 -1.66543 0.981582
lowerneck 2.58789 -11.282 -10.7729
upperneck 23.9575 -18.1193 11.6173
head 9.15083 -8.78356 4.21253
rclavicle -7.65321e-015 1.98785e-014
rhumerus 10.4299 79.2362 -85.0936
rradius 124.172
rwrist 20.3143
rhand -24.2365 -57.9033
rfingers 7.12502
rthumb 2.24898 -87.8712
lclavicle -7.65321e-015 1.98785e-014
lhumerus -176.79 -121.34 273.811
lradius 93.9907
lwrist 47.0191
lhand 19.3527 -9.67722
lfingers 7.12502
lthumb 43.9316 14.2311
rfemur -7.46754 18.4955 27.6807
rtibia 14.1391
rfoot -14.7889 -15.869
rtoes -1.93905
lfemur 2.87021 -29.3879 -7.75425
ltibia 0.151502
lfoot -13.4309 38.8139
ltoes -0.975991
669
root 0.890587 17.6063 8.24196 4.96138 -2.51596 -10.5272
lowerback -2.00731 -2.74825 2.60363
upperback -2.74134 -3.65692 3.07276
thorax -1.65311 -1.84814 1.67863
lowerneck 3.45248 -11.2596 -10.8561
upperneck 22.8395 -17.814 10.8975
head 8.5043 -8.75609 4.08091
rclavicle 1.28713e-014 7.31528e-014
rhumerus 22.435 79.4705 -72.5628
rradius 124.021
rwrist 20.9595
rhand -24.2506 -57.997
rfingers 7.12502
rthumb 2.23534 -87.965
lclavicle 1.28713e-014 7.31528e-014
lhumerus -176.754 -124.7 274.298
lradius 93.8152
lwrist 46.2883
lhand 15.5417 -10.2419
lfingers 7.12502
lthumb 40.3613 14.8742
rfemur -7.37435 18.2279 27.8969
rtibia 13.8733
rfoot -14.6764 -15.5556
rtoes -2.28813
lfemur 2.82952 -29.0328 -7.55964
ltibia 0.183032
lfoot -13.3386 38.5762
ltoes -1.30264
670
root 0.898456 17.6042 8.23904 5.08509 -2.83668 -10.5204
lowerback -2.07151 -2.92039 2.57867
upperback -2.63375 -3.8928 3.28312
thorax -1.48818 -1.96336 1.8991
lowerneck 4.3192 -11.1388 -10.6658
upperneck 21.5846 -17.4578 10.4995
head 7.82556 -8.65616 4.02933
rclavicle -3.09856e-014 2.98177e-014
rhumerus 33.1922 79.3819 -61.5774
rradius 123.801
rwrist 21.4575
rhand -24.8569 -58.0457
rfingers 7.12502
rthumb 1.64978 -88.0191
lclavicle -3.09856e-014 2.98177e-014
lhumerus -176.633 -127.423 274.029
lradius 93.6682
lwrist 46.3108
lhand 13.1136 -10.4773
lfingers 7.12502
lthumb 38.0732 15.302
rfemur -7.50041 18.1918 27.8144
rtibia 13.8191
rfoot -14.5952 -15.2419
rtoes -2.68636
lfemur 2.74067 -28.6668 -7.54819
ltibia 0.238008
lfoot -13.3617 38.5151
ltoes -1.20354
671
root 0.904952 17.6023 8.22835 5.15914 -3.33181 -10.4334
lowerback -2.02365 -2.99315 2.7122
upperback -2.49385 -3.9949 3.26406
thorax -1.38024 -2.01595 1.80224
lowerneck 5.10877 -11.0064 -10.3551
upperneck 20.3799 -17.1519 10.3501
head 7.2099 -8.54753 4.0322
rclavicle 5.19325e-015 -1.03368e-014
rhumerus 42.3991 78.9702 -52.2874
rradius 123.621
rwrist 21.9888
rhand -25.4772 -58.0582
rfingers 7.12502
rthumb 1.05069 -88.0354
lclavicle 5.19325e-015 -1.03368e-014
lhumerus -176.533 -129.596 273.217
lradius 93.5667
lwrist 46.6097
lhand 12.2595 -10.5024
lfingers 7.12502
lthumb 37.2661 15.4928
rfemur -7.66502 18.3274 27.647
rtibia 13.8611
rfoot -14.4515 -14.9621
rtoes -3.24522
lfemur 2.7467 -28.3777 -7.67579
ltibia 0.284631
lfoot -13.505 38.6532
ltoes -0.822831
672
root 0.911205 17.6007 8.2158 5.18848 -3.92509 -10.3779
lowerback -1.97967 -2.93073 2.92673
upperback -2.28436 -3.92054 3.16251
thorax -1.21175 -1.98082 1.57435
lowerneck 5.68994 -10.9951 -9.96328
upperneck 19.3236 -17.032 10.2741
head 6.71068 -8.50587 4.01395
rclavicle -6.02939e-014 4.65156e-014
rhumerus 49.2467 78.3058 -45.3636
rradius 123.495
rwrist 22.3429
rhand -25.9312 -57.8275
rfingers 7.12502
rthumb 0.61216 -87.8064
lclavicle -6.02939e-014 4.65156e-014
lhumerus -176.4 -131.176 272.136
lradius 93.5153
lwrist 46.6189
lhand 12.4277 -10.1215
lfingers 7.12502
lthumb 37.4252 15.8319
rfemur -7.7983 18.5082 27.538
rtibia 13.9275
rfoot -14.2931 -14.6301
rtoes -3.86236
lfemur 2.89287 -28.2037 -7.85632
ltibia 0.294289
lfoot -13.7728 38.9481
ltoes -0.271772
673
root 0.918546 17.599 8.20215 5.19299 -4.53202 -10.3639
lowerback -1.92081 -2.81815 3.21534
upperback -2.06437 -3.77967 3.03173
thorax -1.04697 -1.9125 1.27683
lowerneck 6.28228 -11.0034 -9.71007
upperneck 18.2963 -16.9952 10.4777
head 6.2709 -8.49993 4.09887
rclavicle -1.74558e-014 -2.14687e-014
rhumerus 54.4508 77.4797 -40.0415
rradius 123.46
rwrist 22.3133
rhand -26.2403 -57.5254
rfingers 7.12502
rthumb 0.313634 -87.505
lclavicle -1.74558e-014 -2.14687e-014
lhumerus -176.28 -132.218 270.898
lradius 93.4229
lwrist 46.2081
lhand 13.9414 -9.51686
lfingers 7.12502
lthumb 38.8543 16.0448
rfemur -7.91538 18.6535 27.4768
rtibia 14.0158
rfoot -14.1924 -14.2109
rtoes -4.00609
lfemur 3.00886 -27.8588 -7.96606
ltibia 0.387202
lfoot -14.0597 39.083
ltoes 0.256438
674
root 0.924581 17.5966 8.19129 5.20462 -5.03184 -10.3529
lowerback -1.8992 -2.74656 3.72091
upperback -1.86132 -3.69726 2.75491
thorax -0.901062 -1.87553 0.708571
lowerneck 6.75598 -10.9783 -9.41664
upperneck 17.5609 -16.9507 10.7785
head 5.95179 -8.47787 4.19747
rclavicle -5.81445e-014 8.82604e-014
rhumerus 57.9743 76.5637 -36.6531
rradius 123.446
rwrist 22.1523
rhand -26.3141 -57.4661
rfingers 7.12502
rthumb 0.242339 -87.4457
lclavicle -5.81445e-014 8.82604e-014
lhumerus -176.216 -132.672 269.284
lradius 93.2839
lwrist 45.7088
lhand 15.9522 -9.01486
lfingers 7.12502
lthumb 40.7472 15.9814
rfemur -8.0082 18.7329 27.4276
rtibia 14.0697
rfoot -14.097 -13.8263
rtoes -3.99243
lfemur 2.98575 -27.236 -7.9579
ltibia 0.564475
lfoot -14.1397 38.9026
ltoes 0.452701
675
root 0.92949 17.594 8.1825 5.2533 -5.34315 -10.3342
lowerback -1.85577 -2.77731 3.73525
upperback -1.71011 -3.7426 2.85034
thorax -0.765181 -1.89526 0.794905
lowerneck 6.9768 -10.9488 -9.24016
upperneck 17.1206 -16.8396 10.632
head 5.73671 -8.43467 4.15657
rclavicle -1.6027e-015 -9.93923e-015
rhumerus 61.3124 75.8841 -33.1536
rradius 123.47
rwrist 21.8773
rhand -26.2134 -57.5493
rfingers 7.12502
rthumb 0.339622 -87.5288
lclavicle -1.6027e-015 -9.93923e-015
lhumerus -176.168 -133.006 267.979
lradius 93.1191
lwrist 45.3872
lhand 16.7928 -8.43223
lfingers 7.12502
lthumb 41.5364 16.3112
rfemur -8.10956 18.7824 27.3666
rtibia 14.0589
rfoot -13.9799 -13.6133
rtoes -4.17476
lfemur 2.82647 -26.7192 -7.89621
ltibia 0.785825
lfoot -14.1089 38.6796
ltoes 0.374844
676
root 0.934066 17.5918 8.17364 5.33348 -5.62865 -10.3182
lowerback -1.89185 -2.7771 3.69038
upperback -1.53161 -3.75221 2.98811
thorax -0.549491 -1.89555 0.95214
lowerneck 7.04716 -11.0027 -8.98203
upperneck 16.7137 -16.8048 10.3022
head 5.54512 -8.42406 4.03088
rclavicle 3.14546e-014 -2.22639e-014
rhumerus 63.7929 75.3055 -30.4923
rradius 123.515
rwrist 21.589
rhand -26.207 -57.7352
rfingers 7.12502
rthumb 0.345778 -87.7147
lclavicle 3.14546e-014 -2.22639e-014
lhumerus -175.971 -132.984 266.64
lradius 92.9742
lwrist 45.3962
lhand 16.5452 -7.83458
lfingers 7.12502
lthumb 41.3041 16.9844
rfemur -8.22427 18.8697 27.2962
rtibia 14.0013
rfoot -13.8614 -13.4554
rtoes -4.34684
lfemur 2.64444 -26.2738 -7.84841
ltibia 1.02833
lfoot -14.0944 38.5243
ltoes 0.183946
